<?xml version="1.0" encoding="UTF-8"?>
<svg id="Layer_1" data-name="Layer 1" xmlns="http://www.w3.org/2000/svg" xmlns:xlink="http://www.w3.org/1999/xlink" viewBox="0 0 582.07 512">
  <defs>
    <linearGradient id="linear-gradient" x1="69.44" y1="238.19" x2="443.17" y2="238.19" gradientUnits="userSpaceOnUse">
      <stop offset=".37" stop-color="#f29120"/>
      <stop offset=".4" stop-color="#d58d2e"/>
      <stop offset=".46" stop-color="#9d8549"/>
      <stop offset=".53" stop-color="#6d7f60"/>
      <stop offset=".6" stop-color="#457a73"/>
      <stop offset=".66" stop-color="#277682"/>
      <stop offset=".72" stop-color="#11738d"/>
      <stop offset=".78" stop-color="#047193"/>
      <stop offset=".84" stop-color="#007196"/>
    </linearGradient>
    <linearGradient id="linear-gradient-2" x1="304.06" y1="324.47" x2="482.8" y2="324.47" xlink:href="#linear-gradient"/>
  </defs>
  <path d="M438.39,218.87c0,11.62-9.63,20.99-21.34,20.57-11.16-.4-19.84-9.9-19.84-21.07v-81.4c-.44-6.95-3.31-13.78-8.63-19.1-11.58-11.58-30.36-11.58-41.94,0h0s-77.57,77.58-77.57,77.58c-21.89,21.89-40.66,2.91-40.66,2.91l-54.84-54.59c-16.6-16.6-43.51-16.6-60.1,0s-16.6,43.51,0,60.1l89.97,91.8c16.6,16.6,16.6,43.51,0,60.1-16.6,16.6-43.51,16.6-60.1,0l-64.16-65.98c-8.33-8.33-8.33-21.85,0-30.18,8.33-8.33,21.85-8.33,30.18,0l75.46,78.93c16.6,16.6,43.51,16.6,60.1,0,16.6-16.6,16.6-43.51,0-60.1l-95.55-97.71c-16.6-16.6-16.6-43.51,0-60.1,16.6-16.6,43.51-16.6,60.1,0l79.56,79.06c3.66,3.64,8.23,6.31,13.27,7.44,6.51,1.46,15.41,1.01,24.98-6.58l58.53-61.56c12.53-12.53,32.61-12.76,44.85-.52,5.62,5.62,8.61,12.88,8.99,20.31l-1.28,60.73" fill="none" stroke="url(#linear-gradient)" stroke-linecap="round" stroke-linejoin="round" stroke-width="7"/>
  <path d="M418.53,307.38l26.22,17.51-25.26,19.01c-6.21,4.7-7.39,13.57-2.62,19.73h0c4.74,6.12,13.53,7.23,19.65,2.49l36.07-26.96c9.06-6.77,8.94-20.39-.24-27l-39.4-28.16c-12.84-9.18-30.88-2.36-34.45,13.01l-10.12,54.89c-3.57,15.37-21.61,22.19-34.45,13.01l-39.4-28.16c-9.18-6.61-9.3-20.23-.24-27l36.07-26.96c6.11-4.74,14.91-3.62,19.65,2.49h0c4.77,6.16,3.59,15.03-2.62,19.73l-25.26,19.01,26.22,17.51" fill="none" stroke="url(#linear-gradient-2)" stroke-linecap="round" stroke-linejoin="round" stroke-width="7"/>
  <path d="M495.54,301.57c5.54,6.93,8.85,15.72,8.85,25.29s-3.39,18.55-9.04,25.51" fill="none" stroke="#097ea0" stroke-linecap="round" stroke-linejoin="round" stroke-width="7"/>
  <path d="M509.88,287.43c8.54,10.85,13.63,24.54,13.63,39.42s-5.11,28.6-13.66,39.46" fill="none" stroke="#097ea0" stroke-linecap="round" stroke-linejoin="round" stroke-width="7"/>
  <path d="M522.36,273.91c12.09,14.29,19.37,32.76,19.37,52.94s-7.03,37.99-18.73,52.17" fill="none" stroke="#097ea0" stroke-linecap="round" stroke-linejoin="round" stroke-width="7"/>
</svg>